<svg xmlns="http://www.w3.org/2000/svg" viewBox="0 0 156 25" width="156" height="25">
	<style>
		tspan { white-space:pre }
		.shp0 { fill: #038c73 } 
		.shp1 { fill: #f65e64 } 
	</style>
	<g id="top bar/ gamburger.">
		<g id="logo.">
			<path id="1" class="shp0" d="M71.82 13.79L65.53 6.75L63.43 8.65L69.92 15.92L71.82 13.79L71.82 13.79ZM45.12 7.8C42.8 7.71 40.69 8.56 39.1 10C39.4 7.55 41.08 5.52 43.32 4.78C46.09 3.86 49.69 5.21 53.28 1.9L51.25 -0.15C48.64 2.34 45.45 1.27 42.95 1.95C39.14 2.98 36.33 6.49 36.29 10.69L36.29 10.69L36.29 16.37L36.29 16.37C36.29 21.11 40.09 24.95 44.79 24.95C49.59 24.95 53.46 20.93 53.28 16.04C53.11 11.59 49.52 7.97 45.12 7.8L45.12 7.8ZM45.25 22.14C41.73 22.42 38.79 19.46 39.07 15.9C39.29 13.1 41.54 10.83 44.32 10.61C47.85 10.32 50.78 13.28 50.5 16.84C50.28 19.64 48.03 21.91 45.25 22.14L45.25 22.14ZM31.26 24.6L24.66 17.33L21.59 17.33C21.59 21.43 21.59 23.85 21.62 24.6L18.8 24.6C18.83 22.89 18.83 20.04 18.83 16.05C18.83 12.06 18.83 9.21 18.8 7.5L21.62 7.5C21.59 8.96 21.59 11.34 21.59 14.69L24.73 14.69L31.12 7.5L34.65 7.5L27.27 15.8L35.21 24.6L31.26 24.6L31.26 24.6ZM14.13 19.62C13.06 21.31 11.18 22.37 8.85 22.37C5.19 22.37 2.78 19.69 2.78 16.05C2.78 12.26 5.18 9.73 8.85 9.73C10.8 9.73 12.48 10.54 13.61 11.84L15.43 9.97C13.83 8.22 11.52 7.15 8.85 7.15C3.68 7.15 0 10.71 0 16.05C0 21.18 3.69 24.95 8.85 24.95C11.92 24.95 14.43 23.65 15.99 21.53L14.13 19.62Z" />
			<path id="2" class="shp1" d="M63.38 23.25L65.48 25.16L73.72 15.92L71.82 13.79L63.38 23.25L63.38 23.25ZM118.33 21.7C117.98 22.27 117.49 22.56 116.92 22.42C116.37 22.28 116.01 21.76 116.01 21.19L116.01 12.8C116.01 9.52 113.22 7.13 109.44 7.13C107.1 7.13 105.15 7.91 103.96 9.15L105.85 11.06C106.47 10.26 107.7 9.73 109.23 9.73C111.52 9.73 113.18 11.2 113.18 13.16L113.18 14.44C110.57 14.72 108.73 14.97 107.64 15.22C104.25 15.93 102.23 17.75 102.23 20.5C102.23 23.17 104.35 24.95 107.6 24.95C109.9 24.95 111.77 24.47 113.25 22.72C113.57 24.25 115.05 24.95 116.92 24.95C118.19 24.95 119.3 24.39 120.08 23.47L118.33 21.7L118.33 21.7ZM113.18 19.56C111.95 21.27 110 22.3 107.92 22.3C106.26 22.3 105.17 21.56 105.17 20.17C105.17 19.03 106.05 18.19 107.57 17.76C108.73 17.44 110.6 17.3 113.18 16.98L113.18 19.56L113.18 19.56ZM133.77 24.59L133.77 17.18L124.87 17.18L124.87 24.59L122.05 24.59L122.05 7.49L124.87 7.49L124.87 14.54L133.77 14.54L133.77 7.49L136.59 7.49L136.59 24.59L133.77 24.59L133.77 24.59ZM92.02 7.8C89.71 7.71 87.59 8.56 86 10C86.3 7.55 87.98 5.52 90.22 4.78C93 3.86 96.59 5.21 100.18 1.9L98.15 -0.15C95.54 2.34 92.35 1.27 89.85 1.95C86.04 2.98 83.23 6.49 83.19 10.69L83.19 10.69L83.19 16.37C83.19 21.11 86.99 24.95 91.69 24.95C96.49 24.95 100.36 20.93 100.18 16.04C100.01 11.59 96.43 7.97 92.02 7.8L92.02 7.8ZM92.15 22.14C88.63 22.42 85.69 19.46 85.97 15.9C86.19 13.1 88.44 10.83 91.22 10.61C94.75 10.32 97.68 13.28 97.4 16.84C97.18 19.64 94.93 21.91 92.15 22.14L92.15 22.14ZM153.05 24.59L146.45 17.32L143.38 17.32C143.38 21.42 143.38 23.84 143.41 24.59L140.59 24.59C140.62 22.88 140.62 20.03 140.62 16.04C140.62 12.05 140.62 9.2 140.59 7.49L143.41 7.49C143.38 8.95 143.38 11.34 143.38 14.69L146.52 14.69L152.91 7.49L156.44 7.49L149.06 15.79L157.01 24.59L153.05 24.59Z" />
		</g>
	</g>
</svg>